<?xml version="1.0" encoding="UTF-8"?>
<svg xmlns="http://www.w3.org/2000/svg" width="512" height="640" viewBox="0 0 512 640" role="img" aria-label="EMI">
  <defs>
    <linearGradient id="bg" x1="0" y1="0" x2="1" y2="1">
      <stop offset="0%" stop-color="#0f6f7a"/>
      <stop offset="100%" stop-color="#18aab8"/>
    </linearGradient>
    <radialGradient id="glow" cx="50%" cy="42%" r="55%">
      <stop offset="0%" stop-color="#f5bf25" stop-opacity=".55"/>
      <stop offset="70%" stop-color="#f5bf25" stop-opacity="0"/>
    </radialGradient>
  </defs>
  <rect width="512" height="640" fill="#14110e"/>
  <rect width="512" height="640" fill="url(#glow)"/>
  <ellipse cx="256" cy="520" rx="170" ry="34" fill="#000" opacity=".35"/>
  <circle cx="256" cy="390" r="168" fill="url(#bg)"/>
  <circle cx="256" cy="208" r="86" fill="#be8063"/>
  <ellipse cx="256" cy="148" rx="92" ry="48" fill="#191919"/>
  <path d="M170 220c18 74 154 74 172 0" fill="#191919" opacity=".9"/>
  <rect x="176" y="286" width="160" height="210" rx="48" fill="#18aab8"/>
  <circle cx="228" cy="208" r="8" fill="#1a1410"/>
  <circle cx="284" cy="208" r="8" fill="#1a1410"/>
  <path d="M236 236c12 14 28 14 40 0" fill="none" stroke="#1a1410" stroke-width="5" stroke-linecap="round"/>
  <path d="M190 300h132v34H190z" fill="#f5bf25"/><path d="M210 334h92v120H210z" fill="#26272b"/>
  <text x="256" y="580" text-anchor="middle" fill="#f4ebe0" font-family="Arial Black, Arial, sans-serif" font-size="36" letter-spacing="2">EMI</text>
</svg>