<?xml version="1.0" encoding="UTF-8"?>
<svg xmlns="http://www.w3.org/2000/svg" width="512" height="640" viewBox="0 0 512 640" role="img" aria-label="67">
  <defs>
    <linearGradient id="bg" x1="0" y1="0" x2="1" y2="1">
      <stop offset="0%" stop-color="#3a176e"/>
      <stop offset="100%" stop-color="#6b2fd6"/>
    </linearGradient>
    <radialGradient id="glow" cx="50%" cy="42%" r="55%">
      <stop offset="0%" stop-color="#f0c41a" stop-opacity=".55"/>
      <stop offset="70%" stop-color="#f0c41a" stop-opacity="0"/>
    </radialGradient>
  </defs>
  <rect width="512" height="640" fill="#14110e"/>
  <rect width="512" height="640" fill="url(#glow)"/>
  <ellipse cx="256" cy="520" rx="170" ry="34" fill="#000" opacity=".35"/>
  <circle cx="256" cy="390" r="168" fill="url(#bg)"/>
  <circle cx="256" cy="208" r="86" fill="#c48a6a"/>
  <ellipse cx="256" cy="148" rx="92" ry="48" fill="#1a1a1a"/>
  <path d="M170 220c18 74 154 74 172 0" fill="#1a1a1a" opacity=".9"/>
  <rect x="176" y="286" width="160" height="210" rx="48" fill="#6b2fd6"/>
  <circle cx="228" cy="208" r="8" fill="#1a1410"/>
  <circle cx="284" cy="208" r="8" fill="#1a1410"/>
  <path d="M236 236c12 14 28 14 40 0" fill="none" stroke="#1a1410" stroke-width="5" stroke-linecap="round"/>
  <rect x="186" y="300" width="140" height="48" rx="8" fill="#f0c41a"/><text x="256" y="334" text-anchor="middle" fill="#1a1410" font-size="28" font-family="Arial Black,Arial">#67</text><rect x="200" y="348" width="112" height="140" fill="#2a2438"/>
  <text x="256" y="580" text-anchor="middle" fill="#f4ebe0" font-family="Arial Black, Arial, sans-serif" font-size="36" letter-spacing="2">67</text>
</svg>