<?xml version="1.0" encoding="UTF-8"?>
<svg xmlns="http://www.w3.org/2000/svg" width="512" height="640" viewBox="0 0 512 640" role="img" aria-label="PHIL">
  <defs>
    <linearGradient id="bg" x1="0" y1="0" x2="1" y2="1">
      <stop offset="0%" stop-color="#c9a40a"/>
      <stop offset="100%" stop-color="#f4d21f"/>
    </linearGradient>
    <radialGradient id="glow" cx="50%" cy="42%" r="55%">
      <stop offset="0%" stop-color="#2464a8" stop-opacity=".55"/>
      <stop offset="70%" stop-color="#2464a8" stop-opacity="0"/>
    </radialGradient>
  </defs>
  <rect width="512" height="640" fill="#14110e"/>
  <rect width="512" height="640" fill="url(#glow)"/>
  <ellipse cx="256" cy="520" rx="170" ry="34" fill="#000" opacity=".35"/>
  <circle cx="256" cy="390" r="168" fill="url(#bg)"/>
  <circle cx="256" cy="208" r="86" fill="#f4d21f"/>
  <ellipse cx="256" cy="148" rx="92" ry="48" fill="#171717"/>
  <path d="M170 220c18 74 154 74 172 0" fill="#171717" opacity=".9"/>
  <rect x="176" y="286" width="160" height="210" rx="48" fill="#f4d21f"/>
  <circle cx="228" cy="208" r="8" fill="#1a1410"/>
  <circle cx="284" cy="208" r="8" fill="#1a1410"/>
  <path d="M236 236c12 14 28 14 40 0" fill="none" stroke="#1a1410" stroke-width="5" stroke-linecap="round"/>
  
      <ellipse cx="256" cy="250" rx="110" ry="130" fill="#f4d21f"/>
      <circle cx="220" cy="230" r="16" fill="#fff"/><circle cx="292" cy="230" r="16" fill="#fff"/>
      <circle cx="224" cy="234" r="8" fill="#171717"/><circle cx="296" cy="234" r="8" fill="#171717"/>
      <ellipse cx="256" cy="278" rx="28" ry="18" fill="#171717"/>
      <rect x="196" y="360" width="120" height="90" rx="18" fill="#2464a8"/>
      <text x="256" y="160" text-anchor="middle" fill="#171717" font-size="42" font-family="Arial Black,Arial">•••</text>
  <text x="256" y="580" text-anchor="middle" fill="#f4ebe0" font-family="Arial Black, Arial, sans-serif" font-size="36" letter-spacing="2">PHIL</text>
</svg>